<svg version="1.2" xmlns="http://www.w3.org/2000/svg" viewBox="0 0 162 164" width="162" height="164">
	<title>relinkicon</title>
	<style>
		.s0 { fill: #7216f4 } 
	</style>
	<path id="Path 0" class="s0" d="m41.5 26.4c-1.6 0.7-4 2.8-5.2 4.7-2.2 3.4-2.2 3.8-2.3 43.7 0 37.4 0.1 40.2 1.8 40.9 0.9 0.3 2.4 0.1 3.2-0.4 1.3-0.9 1.6-6.9 2-40.7 0.4-34.8 0.7-40 2.1-41.3 0.9-0.8 2.9-1.3 4.5-1.1 1.6 0.2 19.1 10.2 38.8 22.3 19.8 12.1 36.1 22.7 36.4 23.5 0.3 0.8 0.1 2.6-0.4 3.8-0.6 1.7-10.9 8.4-33.9 22.4-18.2 11-33.3 20.5-33.7 21.2-0.4 0.6-0.2 1.9 0.3 2.9 0.5 0.9 1.7 1.7 2.7 1.7 0.9 0 16.7-9.2 35.1-20.3 23.9-14.5 33.9-21.1 35.3-23.2 1-1.7 1.8-4.6 1.8-6.5 0-2.1-0.9-4.9-2.2-6.8-1.7-2.3-12-9.1-36.3-23.8-18.7-11.3-35.7-21.4-37.7-22.5-2.1-1-5-1.9-6.5-1.9-1.6 0.1-4.1 0.7-5.8 1.4zm0.6 103.1c-0.6 0.8-1 2.3-0.8 3.3 0.1 0.9 1.2 1.8 2.5 2 1.4 0.1 2.6-0.5 3.2-1.8 0.7-1.5 0.6-2.4-0.5-3.5-0.8-0.8-1.9-1.5-2.4-1.5-0.5 0-1.4 0.7-2 1.5z"/>
</svg>